<?xml version="1.0" encoding="UTF-8"?>
<svg version="1.1" xmlns="http://www.w3.org/2000/svg" width="474" height="512">
<path d="M0 0 C0.71495132 -0.00287018 1.42990265 -0.00574036 2.16651917 -0.00869751 C3.67522984 -0.01073443 5.18396714 -0.00523051 6.69262695 0.00732422 C8.99295627 0.02336116 11.29152254 0.00747686 13.59179688 -0.01171875 C15.06120177 -0.00973579 16.53060558 -0.00589101 18 0 C18.68348007 -0.00607269 19.36696014 -0.01214539 20.07115173 -0.0184021 C24.39446807 0.04474833 27.17365879 0.67885116 30.56640625 3.3984375 C33.13911685 6.84879357 32.83510923 10.46016699 32.875 14.6484375 C32.90015143 16.07552507 32.92554957 17.50260831 32.95117188 18.9296875 C32.979937 21.16795814 33.00397083 23.4061539 33.02270508 25.64453125 C33.04437907 27.81288278 33.08380556 29.98038176 33.125 32.1484375 C33.13845459 33.44265625 33.15190918 34.736875 33.16577148 36.0703125 C33.59439346 39.63093086 33.79763292 41.11903859 36.56640625 43.3984375 C39.87087994 43.9964778 39.87087994 43.9964778 43.68359375 43.90234375 C44.37776398 43.91176498 45.0719342 43.92118622 45.78713989 43.93089294 C48.00552848 43.95956061 50.22284739 43.96262151 52.44140625 43.9609375 C54.65266832 43.96455146 56.86314921 43.97417011 59.07424927 44.00169373 C61.08566779 44.02615295 63.0973198 44.028415 65.10888672 44.02954102 C69.69241962 44.51857634 72.08128391 45.96530358 75.35180664 49.12133789 C77.05186988 52.30857204 77.01510281 55.30535728 77 58.83203125 C77.00524185 59.54698257 77.0104837 60.2619339 77.0158844 60.99855042 C77.02229341 62.50723983 77.02098206 64.01597929 77.01245117 65.5246582 C77.0039456 67.82529288 77.03270495 70.12343889 77.06445312 72.42382812 C77.06606553 73.89322843 77.06548685 75.3626331 77.0625 76.83203125 C77.07373398 77.51551132 77.08496796 78.19899139 77.09654236 78.90318298 C77.02762836 83.65906297 75.9172531 86.05462286 72.56640625 89.3984375 C69.64469785 90.8592917 66.9898992 90.60149777 63.73046875 90.6796875 C63.05470795 90.69809692 62.37894714 90.71650635 61.68270874 90.73547363 C59.51903023 90.79425585 57.3552718 90.84703128 55.19140625 90.8984375 C52.35010026 90.96626877 49.50903438 91.04000826 46.66796875 91.1171875 C45.40291504 91.14748047 44.13786133 91.17777344 42.83447266 91.20898438 C39.08755847 91.3519466 39.08755847 91.3519466 35.56640625 92.3984375 C31.92267688 97.16988446 33.19453998 104.41318803 33.19580078 110.15234375 C33.19142003 112.39139451 33.1550566 114.62848424 33.1171875 116.8671875 C33.11132011 118.29426412 33.1073502 119.72135006 33.10546875 121.1484375 C33.09314209 123.08976562 33.09314209 123.08976562 33.08056641 125.0703125 C33.31148892 128.43209601 33.31148892 128.43209601 35.29418945 130.8112793 C37.88558139 132.62138341 39.25021904 132.93997688 42.3828125 133.04296875 C43.30731201 133.08059326 44.23181152 133.11821777 45.18432617 133.15698242 C46.1560376 133.1747876 47.12774902 133.19259277 48.12890625 133.2109375 C49.11802002 133.24098877 50.10713379 133.27104004 51.1262207 133.30200195 C62.87028978 134.08049676 62.87028978 134.08049676 73.56640625 130.3984375 C74.7462751 126.85883096 74.69306987 124.01591844 74.70703125 120.28125 C74.72535817 118.85545276 74.74492838 117.42967106 74.765625 116.00390625 C74.7945843 113.76324165 74.81640622 111.52357876 74.81689453 109.28271484 C74.82023808 107.11466292 74.85482801 104.94890238 74.89453125 102.78125 C74.90387695 101.48590332 74.91322266 100.19055664 74.92285156 98.85595703 C75.72111874 94.56723938 77.23007726 93.1122794 80.56640625 90.3984375 C85.03977906 88.16175109 91.13848655 89.1712109 96.11450195 89.15820312 C98.3599177 89.14851939 100.60440937 89.11750793 102.84960938 89.0859375 C104.28254666 89.07940498 105.71549048 89.07415548 107.1484375 89.0703125 C108.45014893 89.0609668 109.75186035 89.05162109 111.09301758 89.04199219 C114.82216596 89.42468402 116.65677254 90.07020467 119.56640625 92.3984375 C123.2235411 97.28128881 121.89899804 104.57308611 121.88208008 110.41479492 C121.87893099 112.6930372 121.90235392 114.96996601 121.92773438 117.24804688 C121.93000882 118.71093588 121.93071019 120.17382834 121.9296875 121.63671875 C121.93889725 122.30987625 121.94810699 122.98303375 121.95759583 123.67658997 C121.86868591 132.91538625 117.63721295 138.01591987 111.56640625 144.3984375 C110.9825415 145.01570709 110.39867676 145.63297668 109.79711914 146.26895142 C107.99636051 148.14723958 106.17665397 150.00467956 104.34765625 151.85546875 C103.68608521 152.52511154 103.02451416 153.19475433 102.34289551 153.88468933 C100.95612937 155.2851673 99.56788869 156.6841866 98.17822266 158.08178711 C96.76586231 159.50574024 95.35799934 160.93416772 93.95458984 162.36694336 C91.90786754 164.4563554 89.84819307 166.5321783 87.78515625 168.60546875 C87.16515747 169.24297562 86.54515869 169.88048248 85.90637207 170.53730774 C76.27665231 180.11987868 65.03172832 179.59686994 52.19140625 179.6484375 C50.91523438 179.6690625 49.6390625 179.6896875 48.32421875 179.7109375 C39.64280593 179.74681111 32.02424486 179.34606936 25.00390625 173.8359375 C24.19953125 173.0315625 23.39515625 172.2271875 22.56640625 171.3984375 C22.56640625 170.7384375 22.56640625 170.0784375 22.56640625 169.3984375 C21.24640625 168.7384375 19.92640625 168.0784375 18.56640625 167.3984375 C18.56640625 166.7384375 18.56640625 166.0784375 18.56640625 165.3984375 C17.90640625 165.3984375 17.24640625 165.3984375 16.56640625 165.3984375 C16.56640625 164.7384375 16.56640625 164.0784375 16.56640625 163.3984375 C15.73109375 163.058125 15.73109375 163.058125 14.87890625 162.7109375 C11.90481037 161.02293714 9.8463176 158.93167233 7.56640625 156.3984375 C7.56640625 155.7384375 7.56640625 155.0784375 7.56640625 154.3984375 C7.02886719 154.18316406 6.49132812 153.96789062 5.9375 153.74609375 C-1.83654812 149.32756558 -10.60599249 139.95300781 -13.43359375 131.3984375 C-14.43451115 124.98510039 -14.58759945 118.71153399 -14.59472656 112.22827148 C-14.59969147 111.13619385 -14.60465637 110.04411621 -14.60977173 108.91894531 C-14.62430785 105.32746743 -14.63117905 101.73603364 -14.63671875 98.14453125 C-14.64247476 95.63924662 -14.64823244 93.13396199 -14.6539917 90.62867737 C-14.6631388 86.05448302 -14.66945068 81.48030122 -14.67248845 76.90609878 C-14.67697477 70.19017055 -14.69456416 63.47444526 -14.72348905 56.75857872 C-14.74774951 50.9215909 -14.75543438 45.08467062 -14.757164 39.2476368 C-14.7601884 36.77213495 -14.76820973 34.29663391 -14.78134918 31.82116508 C-14.79841623 28.36035626 -14.79652817 24.9000429 -14.79003906 21.43920898 C-14.79925385 20.42031082 -14.80846863 19.40141266 -14.81796265 18.35163879 C-14.7797593 11.84263102 -14.24783771 6.52253941 -9.71069336 1.48583984 C-6.50412144 -0.04542115 -3.48096962 -0.03083695 0 0 Z " fill="#2C292A" transform="translate(183.43359375,147.6015625)"/>
</svg>
